<?xml version="1.0" encoding="utf-8"?>
<!-- Generator: Adobe Illustrator 22.1.0, SVG Export Plug-In . SVG Version: 6.00 Build 0)  -->
<svg version="1.1" id="Layer_1" xmlns="http://www.w3.org/2000/svg" xmlns:xlink="http://www.w3.org/1999/xlink" x="0px" y="0px"
	 viewBox="0 0 388.9 65.7" style="enable-background:new 0 0 388.9 65.7;" xml:space="preserve">
<style type="text/css">
	.st0{fill:#81BC06;}
	.st1{fill:#01A4EF;}
	.st2{fill:#757575;}
</style>
<g>
	<g>
		<g>
			<path class="st0" d="M363.5,29.1c-1.3,0-2.2-0.4-2.9-1.1c-0.7-0.7-1.1-1.7-1.1-3c0-1.3,0.3-2.4,1-3.1c0.7-0.8,1.6-1.1,2.7-1.1
				c1.1,0,1.9,0.3,2.5,1c0.6,0.6,0.9,1.5,0.9,2.7v0.9h-5.4c0,0.8,0.2,1.4,0.6,1.8c0.4,0.4,1,0.6,1.7,0.6c0.5,0,0.9,0,1.3-0.1
				c0.4-0.1,0.9-0.2,1.3-0.4v1.4c-0.4,0.2-0.8,0.3-1.3,0.4C364.5,29,364,29.1,363.5,29.1z M363.2,22c-0.5,0-1,0.2-1.3,0.5
				c-0.3,0.3-0.5,0.8-0.6,1.5h3.7c0-0.7-0.2-1.2-0.5-1.5C364.1,22.2,363.7,22,363.2,22z"/>
			<path class="st0" d="M368.1,28.9V18.3h1.7v10.7H368.1z"/>
			<path class="st0" d="M375.8,28.9H374v-9.2h-3.1v-1.5h8v1.5h-3.1V28.9z"/>
		</g>
	</g>
	<path class="st1" d="M33.7,53.6L50.6,44V22.6l-17-9.6l6.1-1.8L55.3,20v26.8l-15.6,8.5L33.7,53.6z"/>
	<path d="M17.3,42V24.8l14.6-8.3l14.6,8.3v17.1l-14.6,8.3L17.3,42z"/>
	<path class="st0" d="M24.3,55.2L8.7,46.7V20l15.6-8.7l6.1,1.8l-17,9.6V44l16.9,9.6L24.3,55.2z"/>
	<rect x="334.4" y="20.7" class="st2" width="18.4" height="2.9"/>
	<rect x="334.4" y="32.6" class="st2" width="18.4" height="2.9"/>
	<rect x="334.4" y="43.9" class="st2" width="18.4" height="2.9"/>
	<path d="M66.1,20.8h7.4c3.5,0,6,0.5,7.5,1.6c1.5,1,2.3,2.7,2.3,4.9c0,1.5-0.4,2.8-1.3,3.8c-0.9,1-2.1,1.7-3.8,2v0.2
		c4,0.7,5.9,2.8,5.9,6.2c0,2.3-0.8,4.2-2.4,5.5c-1.6,1.3-3.8,2-6.6,2h-9.1V20.8z M69.2,31.9h5c2.1,0,3.7-0.3,4.6-1
		c0.9-0.7,1.4-1.8,1.4-3.4c0-1.5-0.5-2.5-1.6-3.2c-1-0.6-2.7-1-5-1h-4.5V31.9z M69.2,34.5v9.8h5.4c2.1,0,3.7-0.4,4.8-1.2
		c1.1-0.8,1.6-2.1,1.6-3.8c0-1.6-0.5-2.8-1.6-3.6c-1.1-0.8-2.7-1.1-5-1.1H69.2z"/>
	<path d="M97.1,46.9V20.8h3v23.4h11.5v2.8H97.1z"/>
	<path d="M165,23.1c-2.9,0-5.1,1-6.8,2.9c-1.7,1.9-2.5,4.5-2.5,7.8c0,3.4,0.8,6.1,2.4,7.9c1.6,1.9,3.9,2.8,6.8,2.8
		c1.8,0,3.9-0.3,6.2-1v2.7c-1.8,0.7-4,1-6.7,1c-3.8,0-6.8-1.2-8.9-3.5c-2.1-2.3-3.1-5.6-3.1-9.9c0-2.7,0.5-5,1.5-7.1
		c1-2,2.5-3.6,4.4-4.7c1.9-1.1,4.1-1.6,6.7-1.6c2.7,0,5.1,0.5,7.2,1.5l-1.3,2.6C169,23.6,167,23.1,165,23.1z"/>
	<path d="M203.1,46.9h-3.6L190,34.2l-2.7,2.4v10.2h-3V20.8h3v12.9l11.8-12.9h3.6l-10.5,11.3L203.1,46.9z"/>
	<path class="st2" d="M228.7,39.9c0,2.3-0.8,4.1-2.5,5.4c-1.7,1.3-3.9,1.9-6.8,1.9c-3.1,0-5.5-0.4-7.1-1.2v-2.9
		c1.1,0.5,2.2,0.8,3.5,1.1c1.3,0.3,2.5,0.4,3.7,0.4c2,0,3.5-0.4,4.6-1.2c1-0.8,1.5-1.8,1.5-3.2c0-0.9-0.2-1.6-0.5-2.2
		c-0.4-0.6-1-1.1-1.8-1.6c-0.9-0.5-2.1-1-3.9-1.7c-2.4-0.9-4.2-1.9-5.2-3.1c-1-1.2-1.6-2.7-1.6-4.7c0-2,0.8-3.6,2.3-4.8
		c1.5-1.2,3.5-1.8,6-1.8c2.6,0,5,0.5,7.2,1.4l-0.9,2.6c-2.2-0.9-4.2-1.4-6.3-1.4c-1.6,0-2.9,0.3-3.8,1c-0.9,0.7-1.4,1.6-1.4,2.9
		c0,0.9,0.2,1.6,0.5,2.2c0.3,0.6,0.9,1.1,1.7,1.6c0.8,0.5,2,1,3.6,1.6c2.7,1,4.6,2,5.6,3.1C228.2,36.7,228.7,38.1,228.7,39.9z"/>
	<path class="st2" d="M249.4,46.9h-3V23.5h-8.3v-2.7h19.6v2.7h-8.3V46.9z"/>
	<path class="st2" d="M291.6,33.8c0,4.2-1.1,7.5-3.2,9.9c-2.1,2.4-5,3.6-8.8,3.6c-3.8,0-6.8-1.2-8.9-3.5c-2.1-2.4-3.1-5.7-3.1-10
		c0-4.2,1-7.5,3.1-9.9c2.1-2.3,5.1-3.5,8.9-3.5c3.7,0,6.7,1.2,8.8,3.6C290.5,26.3,291.6,29.6,291.6,33.8z M270.8,33.8
		c0,3.5,0.8,6.2,2.3,8c1.5,1.8,3.7,2.7,6.6,2.7c2.9,0,5.1-0.9,6.6-2.7c1.5-1.8,2.2-4.5,2.2-8.1c0-3.5-0.7-6.2-2.2-8
		c-1.5-1.8-3.6-2.7-6.5-2.7c-2.9,0-5.1,0.9-6.6,2.7C271.5,27.6,270.8,30.3,270.8,33.8z"/>
	<path class="st2" d="M325.1,46.9h-3.5L307.4,25h-0.1c0.2,2.6,0.3,4.9,0.3,7.1v14.8h-2.8V20.8h3.4l14.2,21.8h0.1
		c0-0.3-0.1-1.4-0.2-3.1c-0.1-1.7-0.1-3-0.1-3.7v-15h2.8V46.9z"/>
	<path d="M132.7,20.7h-2.6l-10.3,26.2h3.1l3.2-8.3l1.1-2.7l3.1-8.1c0.5-1.4,0.9-2.6,1.1-3.8c0.4,1.5,0.8,2.7,1.2,3.8l3,8.1l0.9,2.7
		l3.2,8.3h3.1L132.7,20.7z"/>
</g>
</svg>
